# AST/ASF file generated using VICON BodyLanguage
# -----------------------------------------------
:version 1.10
:name VICON
:units
  mass 1.0
  length 0.45
  angle deg
:documentation
   .ast/.asf automatically generated from VICON data using
   VICON BodyBuilder and BodyLanguage model FoxedUp or BRILLIANT.MOD
:root
   order TX TY TZ RX RY RZ
   axis XYZ
   position 0 0 0  
   orientation 0 0 0 
:bonedata
  begin
     id 1 
     name lhipjoint
     direction 0.707368 -0.647095 0.284426 
     length 2.60678 
     axis 0 0 0  XYZ
  end
  begin
     id 2 
     name lfemur
     direction 0.34202 -0.939693 0  
     length 6.63812  
     axis 0 0 20  XYZ
    dof rx ry rz
    limits (-160.0 20.0)
           (-70.0 70.0)
           (-60.0 70.0)
  end
  begin
     id 3 
     name ltibia
     direction 0.34202 -0.939693 0   
     length 7.51178   
     axis 0 0 20   XYZ
    dof rx
    limits (-10.0 170.0)
  end
  begin
     id 4 
     name lfoot
     direction 0.121251 -0.333133 0.935051   
     length 1.83716   
     axis -90 7.62852e-016 20   XYZ
    dof rx rz
    limits (-45.0 90.0)
           (-70.0 20.0)
  end
  begin
     id 5 
     name ltoes
     direction 1.53611e-011 -4.21962e-011 1   
     length 0.916133   
     axis -90 7.62852e-016 20   XYZ
    dof rx
    limits (-90.0 20.0)
  end
  begin
     id 6 
     name rhipjoint
     direction -0.692419 -0.660507 0.290321   
     length 2.55385  
     axis 0 0 0  XYZ 
  end
  begin
     id 7 
     name rfemur
     direction -0.34202 -0.939693 0   
     length 7.29079   
     axis 0 0 -20   XYZ
    dof rx ry rz
    limits (-160.0 20.0)
           (-70.0 70.0)
           (-70.0 60.0)
  end
  begin
     id 8 
     name rtibia
     direction -0.34202 -0.939693 0   
     length 7.47143   
     axis 0 0 -20   XYZ
    dof rx
    limits (-10.0 170.0)
 end
 begin
     id 9 
     name rfoot
     direction -0.119907 -0.329441 0.936532   
     length 1.79439  
     axis -90 -7.62852e-016 -20   XYZ
    dof rx rz
    limits (-45.0 90.0)
           (-20.0 70.0)
  end
  begin
     id 10 
     name rtoes
     direction -1.53571e-011 -4.21961e-011 1   
     length 0.896039   
     axis -90 -7.62852e-016 -20   XYZ
    dof rx
    limits (-90.0 20.0)
  end
  begin
     id 11 
     name lowerback
     direction 0.0367721 0.992912 -0.113016   
     length 1.73542   
     axis 0 0 0   XYZ
    dof rx ry rz
    limits (-20.0 45.0)
           (-30.0 30.0)
           (-30.0 30.0)
  end
  begin
     id 12 
     name upperback
     direction -0.000314626 0.990678 0.136227   
     length 1.7514   
     axis 0 0 0   XYZ
    dof rx ry rz
    limits (-20.0 45.0)
           (-30.0 30.0)
           (-30.0 30.0)
  end
  begin
     id 13 
     name thorax
     direction -0.0226159 0.981151 0.191917   
     length 1.71471   
     axis 0 0 0   XYZ
    dof rx ry rz
    limits (-20.0 45.0)
           (-30.0 30.0)
           (-30.0 30.0)
  end
  begin
     id 14 
     name lowerneck
     direction 0.0219333 0.998071 0.0580739   
     length 1.65882   
     axis 0 0 0   XYZ
    dof rx ry rz
    limits (-20.0 45.0)
           (-30.0 30.0)
           (-30.0 30.0)
  end
  begin
     id 15 
     name upperneck
     direction 0.0384529 0.980058 -0.194957   
     length 1.6612   
     axis 0 0 0   XYZ
    dof rx ry rz
    limits (-20.0 45.0)
           (-30.0 30.0)
           (-30.0 30.0)
  end
  begin
     id 16
     name head
     direction 0.00592123 0.997421 -0.0715234  
     length 1.68077  
     axis 0 0 0   XYZ
    dof rx ry rz
    limits (-20.0 45.0)
           (-30.0 30.0)
           (-30.0 30.0)
  end
  begin
     id 17 
     name lclavicle
     direction 0.904803 0.417826 0.0821728  
     length 3.42227  
     axis 0 0 0   XYZ
    dof ry rz
    limits (-20.0 10.0)
           (0.0 20.0)
  end
  begin
     id 18 
     name lhumerus
     direction 1 -4.48965e-011 -2.68786e-027   
     length 5.11878   
     axis -180 -30 -90   XYZ
    dof rx ry rz
    limits (-60.0 90.0)
           (-90.0 90.0)
           (-90.0 90.0)
  end
  begin
     id 19
     name lradius
     direction 1 -4.48965e-011 2.61168e-028   
     length 3.59971   
     axis -180 -30 -90   XYZ
    dof rx
    limits (-10.0 170.0)
  end
  begin
     id 20
     name lwrist
     direction 1 -4.48965e-011 1.58672e-027   
     length 1.79985   
     axis -1.65735e-015 90 90   XYZ
    dof ry
    limits (-180.0 0.0)
 end
  begin
     id 21 
     name lhand
     direction 1 -4.48942e-011 3.17344e-027   
     length 0.62877   
     axis -2.02492e-015 90 90   XYZ
    dof rx rz
    limits (-90.0 90.0)
           (-45.0 45.0)
  end
  begin
     id 22 
     name lfingers
     direction 1 -4.49011e-011 6.34687e-027   
     length 0.506931   
     axis -4.04985e-015 90 90   XYZ
    dof rx
    limits (0.0 90.0)
  end
  begin
     id 23
     name lthumb
     direction 0.707107 -6.34982e-011 0.707107   
     length 0.727854   
     axis -90 45 2.85299e-015   XYZ
    dof rx rz
    limits (-45.0 45.0)
           (-45.0 45.0)
  end
  begin
     id 24 
     name rclavicle
     direction -0.945647 0.32488 0.0143075   
     length 3.52737  
     axis 0 0 0   XYZ 
    dof ry rz
    limits (-10.0 20.0)
           (-20.0 0.0)
  end
  begin
     id 25 
     name rhumerus
     direction -1 -4.48962e-011 1.92182e-027  
     length 5.4902   
     axis -180 30 90   XYZ
    dof rx ry rz
    limits (-90.0 60.0)
           (-90.0 90.0)
           (-90.0 90.0)
  end
  begin
     id 26 
     name rradius
     direction -1 -4.48967e-011 -5.97193e-028   
     length 3.20659   
     axis -180 30 90   XYZ
    dof rx
    limits (-10.0 170.0)
  end
  begin
     id 27 
     name rwrist
     direction -1 -4.48964e-011 1.58672e-027   
     length 1.6033   
     axis -1.65735e-015 -90 -90   XYZ
    dof ry
    limits (-180.0 0.0)
  end
  begin
     id 28
     name rhand
     direction -1 -4.49006e-011 3.17344e-027   
     length 0.691885   
     axis -2.02492e-015 -90 -90   XYZ
    dof rx rz
    limits (-90.0 90.0)
           (-45.0 45.0)
  end
  begin
     id 29
     name rfingers
     direction -1 -4.48908e-011 6.34687e-027   
     length 0.557815   
     axis -4.04985e-015 -90 -90   XYZ
    dof rx
    limits (0.0 90.0)
  end
  begin
     id 30
     name rthumb
     direction -0.707107 -6.34999e-011 0.707107   
     length 0.800915   
     axis -90 -45 -2.85299e-015   XYZ
    dof rx rz
    limits (-45.0 45.0)
           (-45.0 45.0)
  end
:hierarchy
  begin
    root lhipjoint rhipjoint lowerback
    lhipjoint lfemur
    lfemur ltibia
    ltibia lfoot
    lfoot ltoes
    rhipjoint rfemur
    rfemur rtibia
    rtibia rfoot
    rfoot rtoes
    lowerback upperback
    upperback thorax
    thorax lowerneck lclavicle rclavicle
    lowerneck upperneck
    upperneck head
    lclavicle lhumerus
    lhumerus lradius
    lradius lwrist
    lwrist lhand lthumb
    lhand lfingers
    rclavicle rhumerus
    rhumerus rradius
    rradius rwrist
    rwrist rhand rthumb
    rhand rfingers
  end

#!OML:ASF I:\Actors\actors\Patient Classification 1\Patient 1\Session 1\Subject1.ASF
:FULLY-SPECIFIED
:DEGREES
1
root -0.54591 17.5004 8.00378 9.37471 -3.39408 -7.23626
lowerback 0.517323 1.64887 3.87228
upperback -9.8115 2.53163 0.692692
thorax -10.6011 0.932639 -1.65895
lowerneck -3.81776 -11.4118 -7.78151
upperneck 19.8363 -17.5763 11.8609
head 8.54701 -8.06033 3.50683
rclavicle 3.97569e-016 -1.11319e-014
rhumerus -44.3425 -28.3417 -70.1409
rradius 24.0195
rwrist 45.9601
rhand 5.61558 -31.3169
rfingers 7.12502
rthumb 30.9569 -58.7266
lclavicle 3.97569e-016 -1.11319e-014
lhumerus -40.1015 14.9992 77.6066
lradius 19.4043
lwrist -29.7074
lhand -16.0099 -12.8536
lfingers 7.12502
lthumb 10.1906 16.8796
rfemur -2.83265 25.215 22.7193
rtibia 0.473334
rfoot -11.6817 -24.6199
rtoes -1.56698
lfemur 9.55069 -52.1162 -18.0796
ltibia -4.73179
lfoot -33.8716 59.9973
ltoes 20.1287
2
root -0.547224 17.4994 8.00309 9.37256 -3.37894 -7.30117
lowerback 0.468571 1.57236 3.90658
upperback -9.88146 2.4452 0.868719
thorax -10.6639 0.894717 -1.48114
lowerneck -3.41691 -11.261 -8.20785
upperneck 19.7135 -17.3278 11.8966
head 8.44636 -7.99331 3.6402
rclavicle 1.98785e-014 -3.18055e-015
rhumerus -44.361 -27.836 -70.1087
rradius 23.9858
rwrist 45.7367
rhand 5.52153 -31.4301
rfingers 7.12502
rthumb 30.8673 -58.8568
lclavicle 1.98785e-014 -3.18055e-015
lhumerus -40.3949 15.4634 77.493
lradius 19.3883
lwrist -29.8024
lhand -16.1778 -12.9971
lfingers 7.12502
lthumb 10.0286 16.7439
rfemur -2.83011 25.2722 22.8102
rtibia 0.478146
rfoot -11.6593 -24.6695
rtoes -1.48029
lfemur 9.6143 -52.251 -18.0559
ltibia -4.72566
lfoot -34.2611 60.0237
ltoes 20.2536
3
root -0.54827 17.4987 8.00295 9.36511 -3.36339 -7.31946
lowerback 0.420757 1.4882 3.88399
upperback -9.95494 2.34494 1.0427
thorax -10.733 0.854972 -1.27251
lowerneck -3.00274 -11.0977 -8.67148
upperneck 19.6319 -17.081 11.9843
head 8.36488 -7.92427 3.79628
rclavicle -6.16232e-015 4.37326e-015
rhumerus -44.4189 -27.3163 -70.063
rradius 23.9861
rwrist 45.5765
rhand 5.56515 -31.5285
rfingers 7.12502
rthumb 30.9089 -58.9473
lclavicle -6.16232e-015 4.37326e-015
lhumerus -40.7111 15.992 77.3451
lradius 19.4039
lwrist -29.8889
lhand -16.2204 -12.9597
lfingers 7.12502
lthumb 9.98752 16.7834
rfemur -2.82435 25.283 22.8466
rtibia 0.487668
rfoot -11.6234 -24.7074
rtoes -1.63412
lfemur 9.64333 -52.2863 -18.061
ltibia -4.71528
lfoot -34.2977 60.0452
ltoes 20.2993
4
root -0.547982 17.499 8.00255 9.36026 -3.35008 -7.31281
lowerback 0.386607 1.39322 3.85251
upperback -10.0295 2.23072 1.22081
thorax -10.8122 0.809398 -1.05336
lowerneck -2.67639 -10.9396 -9.19378
upperneck 19.6462 -16.8496 12.0724
head 8.33761 -7.85942 3.95323
rclavicle 2.78299e-015 3.29983e-014
rhumerus -44.4949 -26.8067 -69.9797
rradius 23.9919
rwrist 45.5662
rhand 5.72073 -31.5762
rfingers 7.12502
rthumb 31.0572 -58.9668
lclavicle 2.78299e-015 3.29983e-014
lhumerus -41.0231 16.6899 77.1065
lradius 19.419
lwrist -30.084
lhand -16.0767 -12.7892
lfingers 7.12502
lthumb 10.1261 16.9472
rfemur -2.8144 25.2723 22.8407
rtibia 0.477506
rfoot -11.6434 -24.7149
rtoes -1.62077
lfemur 9.65771 -52.3174 -18.0898
ltibia -4.70613
lfoot -34.2064 60.0899
ltoes 20.2693
5
root -0.550711 17.5032 8.0034 9.454 -3.41918 -7.12763
lowerback 0.170025 1.19806 3.49225
upperback -10.2078 1.96877 1.56699
thorax -10.9194 0.730029 -0.453233
lowerneck -1.97623 -10.6018 -10.2209
upperneck 19.5977 -16.3572 12.2275
head 8.23729 -7.7205 4.26489
rclavicle 9.0944e-015 2.98177e-014
rhumerus -44.4903 -25.6893 -69.8395
rradius 23.729
rwrist 45.5476
rhand 5.65425 -31.5045
rfingers 7.12502
rthumb 30.9938 -58.9071
lclavicle 9.0944e-015 2.98177e-014
lhumerus -41.7445 17.8621 76.7973
lradius 19.4923
lwrist -30.0681
lhand -15.9102 -12.6979
lfingers 7.12502
lthumb 10.2868 17.0306
rfemur -2.93625 25.419 22.5628
rtibia 0.434439
rfoot -11.6412 -24.8279
rtoes -0.948412
lfemur 9.51101 -52.4934 -18.2084
ltibia -4.64182
lfoot -34.7233 60.1487
ltoes 20.6426
6
root -0.557704 17.5089 8.02248 9.6555 -3.37165 -6.82247
lowerback -0.402715 1.19843 3.08787
upperback -10.2082 1.90991 1.48857
thorax -10.5807 0.739378 -0.294774
lowerneck -1.95132 -10.6128 -10.1826
upperneck 19.5229 -16.3577 12.1851
head 8.20071 -7.72402 4.24645
rclavicle -1.93815e-015 2.06736e-014
rhumerus -44.4029 -25.7017 -69.7911
rradius 23.2723
rwrist 45.5557
rhand 5.31802 -31.3666
rfingers 7.12502
rthumb 30.6733 -58.8298
lclavicle -1.93815e-015 2.06736e-014
lhumerus -41.6543 18.1569 76.5677
lradius 19.394
lwrist -29.9073
lhand -15.6901 -12.7874
lfingers 7.12502
lthumb 10.4991 16.9304
rfemur -2.98587 25.4681 22.1694
rtibia 0.17033
rfoot -11.538 -25.0113
rtoes 0.081189
lfemur 9.32495 -52.8459 -18.4567
ltibia -4.5693
lfoot -35.26 60.2896
ltoes 20.8907
7
root -0.562079 17.5123 8.0293 9.72367 -3.38415 -6.65237
lowerback -0.621029 1.21175 2.86263
upperback -10.1992 1.90115 1.43798
thorax -10.4421 0.754675 -0.218149
lowerneck -1.95029 -10.6044 -10.1886
upperneck 19.456 -16.3348 12.1821
head 8.17539 -7.71537 4.24934
rclavicle -5.1684e-015 1.47101e-014
rhumerus -44.3957 -25.7519 -69.7258
rradius 23.0145
rwrist 45.5857
rhand 5.23546 -31.3162
rfingers 7.12502
rthumb 30.5945 -58.7941
lclavicle -5.1684e-015 1.47101e-014
lhumerus -41.5663 18.4458 76.3605
lradius 19.5124
lwrist -30.1216
lhand -14.9953 -11.9151
lfingers 7.12502
lthumb 11.1693 17.7676
rfemur -3.01464 25.5338 21.9523
rtibia 0.0743321
rfoot -11.4975 -25.1118
rtoes 0.579659
lfemur 9.25928 -52.9956 -18.6137
ltibia -4.53865
lfoot -35.3921 60.4034
ltoes 20.9038
8
root -0.562899 17.513 8.02873 9.70424 -3.38656 -6.64924
lowerback -0.638767 1.21493 2.84645
upperback -10.1718 1.90359 1.44566
thorax -10.4008 0.758464 -0.200675
lowerneck -2.04054 -10.5787 -10.2672
upperneck 19.4679 -16.2919 12.2091
head 8.1994 -7.69393 4.27017
rclavicle 1.47101e-014 1.74931e-014
rhumerus -44.4784 -25.8934 -69.5688
rradius 22.9487
rwrist 45.8253
rhand 5.43777 -31.3018
rfingers 7.12502
rthumb 30.7874 -58.7436
lclavicle 1.47101e-014 1.74931e-014
lhumerus -41.4575 18.5167 76.3682
lradius 19.7736
lwrist -29.9369
lhand -14.277 -10.768
lfingers 7.12502
lthumb 11.862 18.876
rfemur -2.99691 25.506 21.9558
rtibia 0.0748902
rfoot -11.5171 -25.0749
rtoes 0.727798
lfemur 9.26783 -52.9386 -18.621
ltibia -4.54141
lfoot -35.2012 60.408
ltoes 20.8134
9
root -0.564006 17.5135 8.0276 9.71467 -3.3764 -6.6476
lowerback -0.663865 1.22766 2.8346
upperback -10.1739 1.91814 1.43265
thorax -10.3875 0.766184 -0.208624
lowerneck -2.08886 -10.5608 -10.2479
upperneck 19.492 -16.2563 12.1608
head 8.20571 -7.67652 4.25273
rclavicle -1.30701e-014 -2.78299e-015
rhumerus -44.6216 -26.0244 -69.4099
rradius 22.9045
rwrist 46.0046
rhand 5.60741 -31.5328
rfingers 7.12502
rthumb 30.9492 -58.944
lclavicle -1.30701e-014 -2.78299e-015
lhumerus -41.3947 18.5862 76.2492
lradius 19.7539
lwrist -29.4211
lhand -14.3447 -11.3023
lfingers 7.12502
lthumb 11.7968 18.3455
rfemur -3.02334 25.4516 21.9461
rtibia 0.0831414
rfoot -11.5299 -25.0295
rtoes 0.763795
lfemur 9.21564 -52.9128 -18.5725
ltibia -4.53961
lfoot -35.2305 60.3731
ltoes 20.8376
